<svg width="424" height="487" viewBox="0 0 424 487" fill="none" xmlns="http://www.w3.org/2000/svg">
<rect x="3.4945" y="3.4945" width="417.011" height="479.912" fill="#F5EFE2" stroke="black" stroke-width="6.98901"/>
<path d="M63.3745 418.187H78.5902C81.0897 418.187 83.201 417.349 84.924 415.675C86.6712 413.976 87.5449 411.586 87.5449 408.504C87.5449 406.198 86.6348 404.136 84.8148 402.316C82.9947 400.471 80.9199 399.549 78.5902 399.549H56.0943V446.725H53.4734V396.928H78.5902C81.6479 396.928 84.3416 398.105 86.6712 400.459C89.0009 402.813 90.1657 405.495 90.1657 408.504C90.1657 412.217 89.0373 415.202 86.7804 417.459C84.5236 419.691 81.7935 420.807 78.5902 420.807H63.3745V418.187ZM63.3745 423.428H78.5902C81.114 423.428 83.4437 422.822 85.5792 421.608C87.739 420.371 89.4741 418.599 90.7846 416.294C92.1193 413.988 92.7866 411.392 92.7866 408.504C92.7866 404.767 91.3548 401.466 88.4913 398.603C85.652 395.739 82.3516 394.307 78.5902 394.307H50.8526V446.725H48.2317V391.687H78.5902C81.5265 391.687 84.293 392.463 86.8896 394.016C89.4863 395.569 91.549 397.644 93.0778 400.241C94.6309 402.837 95.4075 405.592 95.4075 408.504C95.4075 411.804 94.6309 414.813 93.0778 417.531C91.5247 420.225 89.462 422.324 86.8896 423.829C84.3416 425.309 81.5751 426.049 78.5902 426.049H63.3745V423.428ZM63.3745 428.67H78.5902C81.1868 428.67 83.6742 428.16 86.0524 427.141C88.4306 426.098 90.4933 424.702 92.2406 422.955C94.0121 421.184 95.4196 419.048 96.4631 416.549C97.5066 414.025 98.0284 411.343 98.0284 408.504C98.0284 405.106 97.1426 401.915 95.3711 398.93C93.5996 395.921 91.2092 393.531 88.2001 391.759C85.2152 389.964 82.0119 389.066 78.5902 389.066H45.6108V446.725H42.9899V386.445H78.5902C82.473 386.445 86.1131 387.464 89.5105 389.503C92.908 391.517 95.6138 394.223 97.628 397.62C99.6422 401.017 100.649 404.645 100.649 408.504C100.649 411.95 100.055 415.129 98.8656 418.041C97.6765 420.929 96.0748 423.331 94.0607 425.248C92.0465 427.166 89.7047 428.658 87.0352 429.726C84.3658 430.769 81.5508 431.291 78.5902 431.291H63.3745V428.67ZM61.3361 446.725H58.7152V402.17H78.5902C80.3132 402.17 81.7935 402.801 83.0311 404.063C84.293 405.325 84.924 406.805 84.924 408.504C84.924 413.212 82.8127 415.566 78.5902 415.566H63.3745V412.945H78.5902C79.755 412.945 80.6651 412.617 81.3203 411.962C81.9755 411.307 82.3031 410.154 82.3031 408.504C82.3031 407.436 81.9391 406.55 81.2111 405.847C80.5073 405.143 79.6337 404.791 78.5902 404.791H61.3361V446.725ZM127.622 406.393C124.807 409.208 123.4 412.605 123.4 416.585C123.4 420.565 124.807 423.962 127.622 426.777C130.437 429.592 133.835 431 137.815 431C141.795 431 145.192 429.592 148.007 426.777C150.822 423.962 152.23 420.565 152.23 416.585C152.23 412.605 150.822 409.208 148.007 406.393C145.192 403.578 141.795 402.17 137.815 402.17C133.835 402.17 130.437 403.578 127.622 406.393ZM122.126 423.21C121.228 421.099 120.779 418.89 120.779 416.585C120.779 414.28 121.228 412.083 122.126 409.996C123.024 407.885 124.237 406.065 125.766 404.536C127.295 403.007 129.103 401.794 131.19 400.896C133.301 399.998 135.509 399.549 137.815 399.549C140.12 399.549 142.316 399.998 144.403 400.896C146.515 401.794 148.335 403.007 149.864 404.536C151.392 406.065 152.606 407.885 153.504 409.996C154.402 412.083 154.85 414.28 154.85 416.585C154.85 418.89 154.402 421.099 153.504 423.21C152.606 425.297 151.392 427.105 149.864 428.634C148.335 430.163 146.515 431.376 144.403 432.274C142.316 433.172 140.12 433.621 137.815 433.621C135.509 433.621 133.301 433.172 131.19 432.274C129.103 431.376 127.295 430.163 125.766 428.634C124.237 427.105 123.024 425.297 122.126 423.21ZM120.779 406.72C119.032 409.729 118.158 413.018 118.158 416.585C118.158 420.152 119.032 423.44 120.779 426.45C122.551 429.459 124.941 431.849 127.95 433.621C130.959 435.368 134.247 436.242 137.815 436.242C141.382 436.242 144.67 435.368 147.679 433.621C150.689 431.849 153.067 429.459 154.814 426.45C156.586 423.44 157.471 420.152 157.471 416.585C157.471 413.018 156.586 409.729 154.814 406.72C153.067 403.711 150.689 401.333 147.679 399.586C144.67 397.814 141.382 396.928 137.815 396.928C134.247 396.928 130.959 397.814 127.95 399.586C124.941 401.333 122.551 403.711 120.779 406.72ZM118.522 427.76C116.532 424.338 115.537 420.613 115.537 416.585C115.537 412.557 116.532 408.831 118.522 405.41C120.512 401.988 123.218 399.282 126.64 397.292C130.061 395.302 133.786 394.307 137.815 394.307C141.843 394.307 145.568 395.302 148.99 397.292C152.412 399.282 155.117 401.988 157.107 405.41C159.097 408.831 160.092 412.557 160.092 416.585C160.092 420.613 159.097 424.338 157.107 427.76C155.117 431.182 152.412 433.888 148.99 435.878C145.568 437.867 141.843 438.862 137.815 438.862C133.786 438.862 130.061 437.867 126.64 435.878C123.218 433.888 120.512 431.182 118.522 427.76ZM114.882 406.902C113.572 409.984 112.916 413.212 112.916 416.585C112.916 419.958 113.572 423.186 114.882 426.268C116.193 429.35 117.952 432.007 120.16 434.239C122.393 436.448 125.05 438.207 128.132 439.518C131.214 440.828 134.442 441.483 137.815 441.483C141.188 441.483 144.416 440.828 147.497 439.518C150.579 438.207 153.225 436.448 155.433 434.239C157.666 432.007 159.437 429.35 160.747 426.268C162.058 423.186 162.713 419.958 162.713 416.585C162.713 413.212 162.058 409.984 160.747 406.902C159.437 403.82 157.666 401.175 155.433 398.967C153.225 396.734 150.579 394.963 147.497 393.652C144.416 392.342 141.188 391.687 137.815 391.687C134.442 391.687 131.214 392.342 128.132 393.652C125.05 394.963 122.393 396.734 120.16 398.967C117.952 401.175 116.193 403.82 114.882 406.902ZM113.972 430.381C111.521 426.158 110.296 421.56 110.296 416.585C110.296 411.61 111.521 407.011 113.972 402.789C116.447 398.566 119.796 395.23 124.019 392.779C128.241 390.303 132.84 389.066 137.815 389.066C142.79 389.066 147.388 390.303 151.611 392.779C155.833 395.23 159.17 398.566 161.621 402.789C164.096 407.011 165.334 411.61 165.334 416.585C165.334 421.56 164.096 426.158 161.621 430.381C159.17 434.603 155.833 437.952 151.611 440.428C147.388 442.879 142.79 444.104 137.815 444.104C132.84 444.104 128.241 442.879 124.019 440.428C119.796 437.952 116.447 434.603 113.972 430.381ZM110.041 404.9C108.463 408.613 107.675 412.508 107.675 416.585C107.675 420.662 108.463 424.569 110.041 428.306C111.642 432.019 113.79 435.222 116.484 437.916C119.177 440.61 122.381 442.757 126.094 444.359C129.831 445.936 133.738 446.725 137.815 446.725C141.892 446.725 145.787 445.936 149.5 444.359C153.237 442.757 156.452 440.61 159.146 437.916C161.839 435.222 163.975 432.019 165.552 428.306C167.154 424.569 167.955 420.662 167.955 416.585C167.955 412.508 167.154 408.613 165.552 404.9C163.975 401.163 161.839 397.948 159.146 395.254C156.452 392.56 153.237 390.425 149.5 388.847C145.787 387.246 141.892 386.445 137.815 386.445C133.738 386.445 129.831 387.246 126.094 388.847C122.381 390.425 119.177 392.56 116.484 395.254C113.79 397.948 111.642 401.163 110.041 404.9ZM107.638 429.325C105.915 425.273 105.054 421.026 105.054 416.585C105.054 412.144 105.915 407.909 107.638 403.881C109.386 399.828 111.715 396.346 114.627 393.434C117.564 390.497 121.046 388.168 125.074 386.445C129.127 384.698 133.374 383.824 137.815 383.824C142.256 383.824 146.49 384.698 150.519 386.445C154.571 388.168 158.054 390.497 160.966 393.434C163.902 396.346 166.232 399.828 167.955 403.881C169.702 407.909 170.576 412.144 170.576 416.585C170.576 421.026 169.702 425.273 167.955 429.325C166.232 433.354 163.902 436.836 160.966 439.772C158.054 442.685 154.571 445.002 150.519 446.725C146.49 448.472 142.256 449.346 137.815 449.346C133.374 449.346 129.127 448.472 125.074 446.725C121.046 445.002 117.564 442.685 114.627 439.772C111.715 436.836 109.386 433.354 107.638 429.325ZM200.352 410.033H195.947C194.079 410.033 192.732 409.56 191.907 408.613C191.082 407.642 190.669 406.368 190.669 404.791C190.669 401.296 193.278 399.549 198.495 399.549C203.397 399.549 207.086 400.277 209.561 401.733L207.45 403.335C205.751 402.558 202.766 402.17 198.495 402.17C196.408 402.17 195.001 402.401 194.273 402.862C193.569 403.323 193.217 403.966 193.217 404.791C193.217 405.616 193.411 406.259 193.8 406.72C194.188 407.181 194.904 407.412 195.947 407.412H200.461C203.737 407.412 206.686 407.97 209.307 409.086C211.952 410.203 214.124 411.731 215.822 413.673C217.521 415.59 218.819 417.81 219.717 420.334C220.615 422.834 221.064 425.515 221.064 428.379C221.064 430.709 220.736 432.917 220.081 435.004C219.426 437.091 218.431 439.008 217.096 440.755C215.786 442.503 214.196 444.019 212.328 445.305C210.484 446.567 208.275 447.55 205.703 448.254C203.155 448.982 200.388 449.346 197.403 449.346C192.72 449.346 188.327 448.63 184.226 447.198C180.149 445.791 176.752 443.813 174.034 441.265L176.145 439.7C178.62 441.932 181.715 443.667 185.427 444.905C189.165 446.118 193.157 446.725 197.403 446.725C200.728 446.725 203.725 446.252 206.394 445.305C209.088 444.335 211.296 443.012 213.019 441.338C214.767 439.663 216.101 437.722 217.024 435.513C217.97 433.305 218.443 430.927 218.443 428.379C218.443 425.006 217.764 421.96 216.405 419.242C215.046 416.5 212.971 414.28 210.18 412.581C207.414 410.882 204.138 410.033 200.352 410.033ZM195.947 412.654H200.097C205.023 412.654 208.87 414.158 211.636 417.167C214.427 420.177 215.822 423.914 215.822 428.379C215.822 432.917 214.209 436.678 210.981 439.663C207.753 442.624 203.228 444.104 197.403 444.104C193.521 444.104 189.893 443.57 186.519 442.503C183.146 441.435 180.343 439.93 178.111 437.989L180.149 436.351C182.139 437.977 184.639 439.239 187.648 440.136C190.681 441.034 193.933 441.483 197.403 441.483C202.524 441.483 206.431 440.258 209.125 437.807C211.842 435.356 213.201 432.213 213.201 428.379C213.201 424.593 212.061 421.463 209.78 418.987C207.523 416.512 204.283 415.274 200.061 415.274H195.947C192.404 415.274 189.747 414.304 187.975 412.362C186.204 410.421 185.318 407.897 185.318 404.791C185.318 401.685 186.41 399.161 188.594 397.22C190.803 395.278 194.103 394.307 198.495 394.307C201.577 394.307 204.441 394.671 207.086 395.399C209.731 396.103 211.915 397.122 213.638 398.457L211.563 400.059C208.53 397.972 204.174 396.928 198.495 396.928C194.831 396.928 192.149 397.656 190.451 399.112C188.776 400.544 187.939 402.437 187.939 404.791C187.939 407.169 188.558 409.074 189.796 410.506C191.057 411.938 193.108 412.654 195.947 412.654ZM195.947 417.895H199.951C203.494 417.895 206.152 418.878 207.923 420.844C209.695 422.81 210.581 425.321 210.581 428.379C210.581 431.485 209.476 434.009 207.268 435.95C205.084 437.892 201.796 438.862 197.403 438.862C194.321 438.862 191.446 438.511 188.776 437.807C186.131 437.079 183.947 436.047 182.224 434.713L184.299 433.111C187.332 435.198 191.701 436.242 197.403 436.242C201.068 436.242 203.737 435.526 205.412 434.094C207.11 432.638 207.96 430.733 207.96 428.379C207.96 426.025 207.329 424.132 206.067 422.7C204.805 421.244 202.754 420.516 199.915 420.516H195.947C190.973 420.516 187.078 419.036 184.263 416.075C181.472 413.09 180.076 409.329 180.076 404.791C180.076 400.253 181.69 396.504 184.918 393.543C188.145 390.558 192.671 389.066 198.495 389.066C202.378 389.066 205.994 389.6 209.343 390.667C212.716 391.735 215.519 393.24 217.752 395.181L215.713 396.819C213.723 395.193 211.224 393.931 208.214 393.033C205.205 392.136 201.966 391.687 198.495 391.687C193.375 391.687 189.456 392.912 186.738 395.363C184.044 397.814 182.697 400.957 182.697 404.791C182.697 408.601 183.838 411.744 186.119 414.219C188.4 416.67 191.676 417.895 195.947 417.895ZM195.947 423.137H199.951C201.82 423.137 203.167 423.622 203.992 424.593C204.817 425.564 205.23 426.826 205.23 428.379C205.23 431.873 202.621 433.621 197.403 433.621C192.477 433.621 188.776 432.893 186.301 431.437L188.412 429.835C190.111 430.611 193.108 431 197.403 431C199.49 431 200.886 430.769 201.59 430.308C202.318 429.847 202.682 429.204 202.682 428.379C202.682 427.578 202.475 426.947 202.063 426.486C201.674 426.001 200.946 425.758 199.879 425.758H195.947C192.598 425.758 189.565 425.212 186.847 424.12C184.153 423.028 181.933 421.523 180.186 419.606C178.463 417.689 177.14 415.469 176.218 412.945C175.296 410.421 174.835 407.703 174.835 404.791C174.835 402.461 175.162 400.253 175.818 398.166C176.473 396.079 177.456 394.162 178.766 392.415C180.101 390.667 181.69 389.163 183.535 387.901C185.403 386.615 187.611 385.62 190.16 384.916C192.732 384.188 195.511 383.824 198.495 383.824C203.179 383.824 207.559 384.54 211.636 385.972C215.713 387.379 219.111 389.357 221.829 391.905L219.717 393.47C217.242 391.238 214.148 389.515 210.435 388.301C206.722 387.064 202.742 386.445 198.495 386.445C195.171 386.445 192.162 386.93 189.468 387.901C186.799 388.847 184.59 390.158 182.843 391.832C181.12 393.507 179.785 395.448 178.839 397.656C177.917 399.865 177.456 402.243 177.456 404.791C177.456 408.213 178.147 411.295 179.53 414.037C180.914 416.779 183.025 418.987 185.864 420.662C188.704 422.312 192.065 423.137 195.947 423.137ZM225.723 389.066V386.445H265.037V389.066H225.723ZM225.723 394.307V391.687H265.037V394.307H225.723ZM225.723 399.549V396.928H265.037V399.549H254.553V446.725H251.932V399.549H249.311V446.725H246.69V399.549H244.07V446.725H241.449V399.549H238.828V446.725H236.207V399.549H225.723ZM284.111 446.725H281.49V386.445H284.111V446.725ZM278.869 446.725H276.248V386.445H278.869V446.725ZM273.627 446.725H271.006V386.445H273.627V446.725ZM289.353 433.621H317.236V436.242H289.353V438.862H317.236V441.483H289.353V444.104H317.236V446.725H286.732V386.445H317.236V389.066H289.353V391.687H317.236V394.307H289.353V396.928H317.236V399.549H289.353V410.033H303.658V412.654H289.353V415.274H303.658V417.895H289.353V420.516H303.658V423.137H289.353V433.621ZM343.517 416.731H359.315C361.718 416.731 363.744 415.954 365.394 414.401C367.069 412.848 367.906 410.639 367.906 407.776C367.906 405.665 367.032 403.772 365.285 402.097C363.538 400.399 361.548 399.549 359.315 399.549H336.82V446.725H334.199V396.928H359.315C362.276 396.928 364.885 398.033 367.142 400.241C369.399 402.425 370.527 404.937 370.527 407.776C370.527 411.27 369.435 414.073 367.251 416.185C365.067 418.296 362.422 419.351 359.315 419.351H343.517V416.731ZM343.517 421.972H359.315C363.101 421.972 366.353 420.65 369.071 418.005C371.789 415.335 373.148 411.926 373.148 407.776C373.148 404.209 371.752 401.078 368.962 398.384C366.195 395.666 362.98 394.307 359.315 394.307H331.578V446.725H328.957V391.687H359.315C362.203 391.687 364.909 392.427 367.433 393.907C369.981 395.387 372.007 397.377 373.512 399.877C375.016 402.352 375.769 404.985 375.769 407.776C375.769 412.557 374.143 416.561 370.891 419.788C367.663 422.992 363.805 424.593 359.315 424.593H343.517V421.972ZM343.517 427.214H359.315C362.713 427.214 365.868 426.377 368.78 424.702C371.692 423.028 374.021 420.698 375.769 417.713C377.516 414.704 378.39 411.392 378.39 407.776C378.39 404.5 377.516 401.43 375.769 398.566C374.046 395.679 371.716 393.373 368.78 391.65C365.843 389.927 362.689 389.066 359.315 389.066H326.336V446.725H323.715V386.445H359.315C363.125 386.445 366.705 387.428 370.054 389.393C373.403 391.335 376.06 393.956 378.026 397.256C380.016 400.532 381.01 404.039 381.01 407.776C381.01 412.095 380.076 415.893 378.208 419.169C376.363 422.446 373.852 425.006 370.673 426.85L377.443 446.725H374.677L368.197 428.088C367.227 428.476 366.486 428.743 365.977 428.888L372.056 446.725H369.289L363.356 429.507C363.138 429.556 362.361 429.641 361.026 429.762L366.668 446.725H363.902L358.333 429.835H355.967L361.281 446.725H358.515L353.164 429.835H343.517V427.214ZM342.061 446.725H339.44V402.17H359.315C360.941 402.17 362.337 402.728 363.502 403.845C364.691 404.937 365.285 406.247 365.285 407.776C365.285 411.998 363.295 414.11 359.315 414.11H343.517V411.489H359.315C360.359 411.489 361.172 411.222 361.754 410.688C362.361 410.13 362.664 409.159 362.664 407.776C362.664 406.927 362.337 406.223 361.682 405.665C361.051 405.082 360.262 404.791 359.315 404.791H342.061V446.725Z" fill="#FF3C3C"/>
<rect x="23.297" y="23.2964" width="377.407" height="337.802" fill="#FF3C3C"/>
</svg>
